<svg width="22" height="16" viewBox="0 0 22 16" fill="none" xmlns="http://www.w3.org/2000/svg">
<rect width="22" height="16" fill="#F5F5F5" style="fill:#F5F5F5;fill:color(display-p3 0.9608 0.9608 0.9608);fill-opacity:1;"/>
<g id="Country flags">
<rect width="1024" height="1301" transform="translate(-448 -485)" fill="#F5F5F5" style="fill:#F5F5F5;fill:color(display-p3 0.9608 0.9608 0.9608);fill-opacity:1;"/>
<g id="Container">
<rect width="1024" height="976" transform="translate(-448 -160)" fill="white" style="fill:white;fill-opacity:1;"/>
<g id="Container_2">
<g id="Container_3">
<g id="burkina-faso" clip-path="url(#clip0_51_62)">
<g id="design">
<g clip-path="url(#clip1_51_62)">
<rect width="22" height="16" rx="2" fill="#F93939" style="fill:#F93939;fill:color(display-p3 0.9750 0.2234 0.2234);fill-opacity:1;"/>
<path id="vector" d="M19.9048 0H2.09524C0.93807 0 0 0.955126 0 2.13333V13.8667C0 15.0449 0.93807 16 2.09524 16H19.9048C21.0619 16 22 15.0449 22 13.8667V2.13333C22 0.955126 21.0619 0 19.9048 0Z" fill="#F93939" style="fill:#F93939;fill:color(display-p3 0.9750 0.2234 0.2234);fill-opacity:1;"/>
<path id="vector_2" fill-rule="evenodd" clip-rule="evenodd" d="M0 8H22V16H0V8Z" fill="#249F58" style="fill:#249F58;fill:color(display-p3 0.1406 0.6250 0.3444);fill-opacity:1;"/>
<path id="vector_3" fill-rule="evenodd" clip-rule="evenodd" d="M10.9998 9.8666L8.84485 11.0207L9.25656 8.57807L7.51123 6.84473L9.92075 6.48847L10.9998 4.2666L12.0788 6.48953L14.4884 6.8458L12.743 8.577L13.1548 11.0218" fill="#FFDA2C" style="fill:#FFDA2C;fill:color(display-p3 1.0000 0.8568 0.1708);fill-opacity:1;"/>
</g>
</g>
</g>
</g>
</g>
</g>
</g>
<defs>
<clipPath id="clip0_51_62">
<rect width="22" height="16" fill="white" style="fill:white;fill-opacity:1;"/>
</clipPath>
<clipPath id="clip1_51_62">
<rect width="22" height="16" rx="2" fill="white" style="fill:white;fill-opacity:1;"/>
</clipPath>
</defs>
</svg>
