<svg width="22" height="16" viewBox="0 0 22 16" fill="none" xmlns="http://www.w3.org/2000/svg">
<rect width="22" height="16" fill="#F5F5F5" style="fill:#F5F5F5;fill:color(display-p3 0.9608 0.9608 0.9608);fill-opacity:1;"/>
<g id="Country flags">
<rect width="1024" height="1301" transform="translate(-264 -685)" fill="#F5F5F5" style="fill:#F5F5F5;fill:color(display-p3 0.9608 0.9608 0.9608);fill-opacity:1;"/>
<g id="Container">
<rect width="1024" height="976" transform="translate(-264 -360)" fill="white" style="fill:white;fill-opacity:1;"/>
<g id="Container_2">
<g id="Container_3">
<g id="haiti" clip-path="url(#clip0_51_62)">
<g id="design">
<rect width="22" height="16" rx="2" fill="#F93939" style="fill:#F93939;fill:color(display-p3 0.9750 0.2234 0.2234);fill-opacity:1;"/>
<path id="vector" fill-rule="evenodd" clip-rule="evenodd" d="M0 0H22V8H0V0Z" fill="#1A47B8" style="fill:#1A47B8;fill:color(display-p3 0.1021 0.2767 0.7208);fill-opacity:1;"/>
<g id="group-3">
<path id="vector_2" fill-rule="evenodd" clip-rule="evenodd" d="M6.28564 5.33301H15.0158V10.6663H6.28564V5.33301Z" fill="white" style="fill:white;fill-opacity:1;"/>
<path id="vector_3" fill-rule="evenodd" clip-rule="evenodd" d="M9.77783 7.11035H11.5239V10.6659H9.77783V7.11035Z" fill="#FFDA2C" style="fill:#FFDA2C;fill:color(display-p3 1.0000 0.8568 0.1708);fill-opacity:1;"/>
<path id="vector_4" fill-rule="evenodd" clip-rule="evenodd" d="M8.03174 7.99967C8.03174 6.52767 9.1946 5.33301 10.6508 5.33301C12.0965 5.33301 13.2698 6.51701 13.2698 7.99967V10.6663H8.03174V7.99967ZM9.77777 8.00856C9.77777 7.51079 10.1828 7.11079 10.6508 7.11079C11.1327 7.11079 11.5238 7.49123 11.5238 8.00856V10.6663H9.77777V8.00856Z" fill="#249F58" style="fill:#249F58;fill:color(display-p3 0.1406 0.6250 0.3444);fill-opacity:1;"/>
</g>
</g>
</g>
</g>
</g>
</g>
</g>
<defs>
<clipPath id="clip0_51_62">
<rect width="22" height="16" fill="white" style="fill:white;fill-opacity:1;"/>
</clipPath>
</defs>
</svg>
